<?xml version="1.0" encoding="UTF-8"?>
<svg width="34.131mm" height="19.315mm" version="1.1" viewBox="0 0 34.131 19.315" xmlns="http://www.w3.org/2000/svg" xmlns:cc="http://creativecommons.org/ns#" xmlns:dc="http://purl.org/dc/elements/1.1/" xmlns:rdf="http://www.w3.org/1999/02/22-rdf-syntax-ns#">
 <metadata>
  <rdf:RDF>
   <cc:Work rdf:about="">
    <dc:format>image/svg+xml</dc:format>
    <dc:type rdf:resource="http://purl.org/dc/dcmitype/StillImage"/>
    <dc:title/>
   </cc:Work>
  </rdf:RDF>
 </metadata>
 <g transform="translate(-12.105 -3.9876)">
  <path d="m22.953 22.376v-0.92604h1.8521v1.8521h-1.8521zm-10.781-1.8521 0.0053-1.0583 0.11507 0.5984 0.11507 0.5984-0.24081 0.91987zm28.773 0v-0.92604h1.5875v1.8521h-1.5875zm-26.723-1.7198v-0.79375h1.5875v-1.8521h1.8521v3.4396h-3.4396zm8.7312 0v-0.79375h-1.5875v-1.8521h-1.8521v-1.8521h-7.4083v-10.319h34.131v8.7312h-3.7042v1.5875h-1.5875v1.8521h3.4396v-1.8521h1.8521v1.8521h-1.8521v1.8521h1.8521v1.5875h-1.8521v-1.5875h-5.2917v1.5875h-1.8521v-3.4396h-1.8521v1.8521h-3.4396v1.5875h-3.4396v-1.5875h3.4396v-1.8521h-5.2917v1.8521h-1.8521v1.5875h-1.8521zm1.8521-2.6458v-1.8521h-3.4396v1.8521h1.5875v1.8521h1.8521zm10.583-0.92604v-0.92604h1.8521v1.8521h1.8521v-1.8521h1.8521v-1.5875h-1.8521v-1.8521h1.8521v-3.7042h-1.8521v3.7042h-1.8521v1.8521h-1.8521v1.5875h-1.5875v1.8521h1.5875zm1.8521-1.7198v-0.79375h1.8521v1.5875h-1.8521zm-7.1438 0v-0.79375h1.8521v-1.8521h-1.8521v1.8521h-1.5875v1.5875h1.5875zm-14.287-1.7198v-0.92604h1.8521v1.8521h1.8521v-3.7042h-1.8521v-1.8521h-1.8521v3.7042h-1.5875v1.8521h1.5875zm10.848 0v-0.92604h-1.8521v1.8521h1.8521zm8.7312-1.8521v-0.92604h-1.5875v1.8521h1.5875zm8.9958-1.8521v-0.92604h-1.8521v1.8521h1.8521z" fill="#fc8d51" stroke-width=".26458"/>
 </g>
</svg>
